<svg width="31" height="31" viewBox="0 0 31 31" fill="none" xmlns="http://www.w3.org/2000/svg">
<path fill-rule="evenodd" clip-rule="evenodd" d="M15.5687 17.506C16.785 17.506 17.7746 16.5165 17.7746 15.3001C17.7746 14.0838 16.785 13.0942 15.5687 13.0942C14.3523 13.0942 13.3628 14.0838 13.3628 15.3001C13.3628 16.5165 14.3523 17.506 15.5687 17.506ZM15.5687 13.9766C16.2985 13.9766 16.8922 14.5703 16.8922 15.3001C16.8922 16.0299 16.2985 16.6237 15.5687 16.6237C14.8389 16.6237 14.2451 16.0299 14.2451 15.3001C14.2451 14.5703 14.8389 13.9766 15.5687 13.9766Z" fill="black"/>
<path fill-rule="evenodd" clip-rule="evenodd" d="M20.8628 15.3C20.8628 12.3808 18.4879 10.0059 15.5687 10.0059C12.6495 10.0059 10.2746 12.3808 10.2746 15.3C10.2746 18.2192 12.6495 20.5941 15.5687 20.5941C18.4879 20.5941 20.8628 18.2192 20.8628 15.3ZM11.179 15.7412H12.0099V14.8588H11.179C11.3857 12.7875 13.0308 11.1339 15.0981 10.9136V11.7706H15.9805V10.9081C18.0753 11.103 19.7497 12.768 19.9583 14.8588H19.0687V15.7412H19.9583C19.7497 17.832 18.0752 19.497 15.9805 19.6919V18.8294H15.0981V19.6863C13.0308 19.4661 11.3856 17.8124 11.179 15.7412Z" fill="black"/>
<path fill-rule="evenodd" clip-rule="evenodd" d="M22.6275 15.3C22.6275 11.4078 19.4609 8.24121 15.5687 8.24121C11.6764 8.24121 8.50986 11.4078 8.50986 15.3C8.50986 19.1923 11.6764 22.3589 15.5687 22.3589C19.4609 22.3589 22.6275 19.1923 22.6275 15.3ZM9.39221 15.3C9.39221 11.8943 12.163 9.12356 15.5687 9.12356C18.9744 9.12356 21.7452 11.8943 21.7452 15.3C21.7452 18.7057 18.9744 21.4765 15.5687 21.4765C12.163 21.4765 9.39221 18.7057 9.39221 15.3Z" fill="black"/>
<path fill-rule="evenodd" clip-rule="evenodd" d="M25.2451 15.2854H24.3628C24.3628 20.1426 20.4111 24.0942 15.554 24.0942V24.9766C20.8977 24.9766 25.2451 20.6291 25.2451 15.2854Z" fill="black"/>
<path fill-rule="evenodd" clip-rule="evenodd" d="M15.554 5.59424C10.2103 5.59424 5.86279 9.94171 5.86279 15.2854H6.74515C6.74515 10.4282 10.6968 6.47659 15.554 6.47659V5.59424Z" fill="black"/>
<path fill-rule="evenodd" clip-rule="evenodd" d="M27.0393 15.3C27.0393 21.6249 21.8936 26.7706 15.5687 26.7706V27.653C22.3801 27.653 27.9216 22.1115 27.9216 15.3H27.0393Z" fill="black"/>
<path fill-rule="evenodd" clip-rule="evenodd" d="M15.5687 3.82937V2.94702C8.75727 2.94702 3.21574 8.48855 3.21574 15.3H4.09809C4.09809 8.97508 9.2438 3.82937 15.5687 3.82937Z" fill="black"/>
<path fill-rule="evenodd" clip-rule="evenodd" d="M26.1753 4.69346C23.3421 1.86034 19.5753 0.300049 15.5687 0.300049C11.562 0.300049 7.79521 1.86034 4.96209 4.69346C2.12897 7.52658 0.56868 11.2934 0.56868 15.3C0.56868 19.3067 2.12897 23.0735 4.96209 25.9066C7.79521 28.7398 11.562 30.3 15.5687 30.3C19.5753 30.3 23.3421 28.7398 26.1753 25.9066C29.0084 23.0735 30.5687 19.3067 30.5687 15.3C30.5687 11.2934 29.0084 7.52658 26.1753 4.69346ZM25.5514 25.2828C22.8849 27.9492 19.3396 29.4177 15.5687 29.4177C11.7977 29.4177 8.2525 27.9492 5.58597 25.2828C2.91944 22.6163 1.45103 19.071 1.45103 15.3C1.45103 11.5291 2.9195 7.98387 5.58597 5.31734C8.25244 2.65081 11.7977 1.1824 15.5687 1.1824C19.3396 1.1824 22.8849 2.65087 25.5514 5.31734C28.2179 7.98381 29.6863 11.5291 29.6863 15.3C29.6863 19.071 28.2179 22.6162 25.5514 25.2828Z" fill="black"/>
</svg>
