<svg width="29" height="31" viewBox="0 0 29 31" fill="none" xmlns="http://www.w3.org/2000/svg">
<path fill-rule="evenodd" clip-rule="evenodd" d="M19.2106 6.8001H9.61487C6.1628 6.8001 3.25847 9.38666 2.86026 12.8157L1.8151 21.8157C1.34603 25.8549 4.50335 29.4001 8.56971 29.4001H20.43C24.5483 29.4001 27.7213 25.7682 27.1684 21.6871L25.949 12.6871C25.4922 9.31524 22.6133 6.8001 19.2106 6.8001ZM9.61487 5.6001C5.55361 5.6001 2.13676 8.64311 1.66828 12.6773L0.623113 21.6773C0.0712666 26.4293 3.78576 30.6001 8.56971 30.6001H20.43C25.2751 30.6001 29.008 26.3273 28.3575 21.526L27.1382 12.526C26.6007 8.55909 23.2138 5.6001 19.2106 5.6001H9.61487Z" fill="black"/>
<path fill-rule="evenodd" clip-rule="evenodd" d="M9.64902 20.7415C9.64896 20.7413 9.6489 20.741 10.2321 20.5999C10.8152 20.4588 10.8152 20.4586 10.8151 20.4584C10.8151 20.4581 10.8151 20.4583 10.8151 20.4584L10.8163 20.4628L10.823 20.4884C10.8295 20.5123 10.8399 20.5495 10.8546 20.5981C10.884 20.6955 10.9305 20.838 10.9965 21.0103C11.1293 21.3569 11.3374 21.8144 11.6389 22.2676C12.2434 23.1762 13.1707 23.9999 14.5869 23.9999C16.0031 23.9999 16.9305 23.1762 17.535 22.2676C17.8364 21.8144 18.0446 21.3569 18.1773 21.0103C18.2433 20.838 18.2898 20.6955 18.3192 20.5981C18.3339 20.5495 18.3444 20.5123 18.3508 20.4884L18.3576 20.4628L18.3587 20.4584C18.3586 20.4586 18.3586 20.4588 18.9417 20.5999C19.5249 20.741 19.5249 20.7413 19.5248 20.7415L19.5243 20.7436L19.5233 20.7476L19.5202 20.76C19.5176 20.7701 19.514 20.784 19.5093 20.8013C19.4999 20.836 19.4862 20.8848 19.4679 20.9455C19.4312 21.0668 19.3755 21.2369 19.2979 21.4396C19.1434 21.843 18.8979 22.3854 18.534 22.9323C17.8079 24.0237 16.5578 25.1999 14.5869 25.1999C12.616 25.1999 11.3659 24.0237 10.6398 22.9323C10.276 22.3854 10.0305 21.843 9.87591 21.4396C9.79827 21.2369 9.74265 21.0668 9.70596 20.9455C9.68759 20.8848 9.67391 20.836 9.66453 20.8013C9.65984 20.784 9.65623 20.7701 9.65364 20.76L9.65052 20.7476L9.64952 20.7436L9.64902 20.7415Z" fill="black"/>
<path fill-rule="evenodd" clip-rule="evenodd" d="M10.8296 6.15438C10.8296 6.15421 10.8296 6.15403 10.2321 6.1C9.63451 6.04597 9.63453 6.04574 9.63455 6.0455L9.63461 6.0449L9.63475 6.04333L9.63519 6.03868L9.6367 6.0235C9.63799 6.01079 9.63988 5.99298 9.64245 5.97039C9.64759 5.92523 9.65547 5.86091 9.66681 5.78017C9.68948 5.61883 9.7261 5.39105 9.78255 5.11879C9.89489 4.57689 10.0884 3.84585 10.414 3.10774C11.0562 1.65163 12.3005 -0.000179634 14.587 1.46524e-08C16.8733 0.000179663 18.1176 1.65191 18.7599 3.10796C19.0854 3.84603 19.2789 4.57701 19.3913 5.11886C19.4477 5.3911 19.4843 5.61886 19.507 5.78019C19.5184 5.86092 19.5262 5.92523 19.5314 5.97039C19.5339 5.99297 19.5358 6.01079 19.5371 6.02349L19.5386 6.03868L19.5391 6.04332L19.5392 6.0449L19.5393 6.04549C19.5393 6.04574 19.5393 6.04596 18.9417 6.1C18.3442 6.15404 18.3442 6.15422 18.3442 6.15438L18.3441 6.15335L18.3433 6.14496L18.3391 6.10608C18.335 6.07068 18.3285 6.01683 18.3187 5.94718C18.2991 5.80774 18.2667 5.60583 18.2163 5.36247C18.1148 4.87312 17.9429 4.22916 17.6619 3.59227C17.0912 2.29839 16.158 1.20012 14.5869 1.2C13.0158 1.19988 12.0827 2.29807 11.5119 3.59203C11.231 4.22896 11.059 4.87298 10.9576 5.36238C10.9071 5.60576 10.8747 5.80769 10.8551 5.94715C10.8454 6.0168 10.8388 6.07066 10.8348 6.10607L10.8305 6.14495L10.8297 6.15334L10.8296 6.15438Z" fill="black"/>
</svg>
