<svg width="42" height="42" viewBox="0 0 42 42" fill="none" xmlns="http://www.w3.org/2000/svg">
<path d="M21 41C32.0457 41 41 32.0457 41 21C41 9.9543 32.0457 1 21 1C9.9543 1 1 9.9543 1 21C1 32.0457 9.9543 41 21 41Z" fill="white" stroke="black" stroke-width="0.5"/>
<path d="M11.3877 20.032L17.69 14.1919C19.6263 12.3976 22.6239 12.4178 24.5359 14.2379L30.622 20.0315C30.8634 20.2613 31 20.5799 31 20.9132C31 21.5854 30.455 22.1304 29.7827 22.1304H28.6682V29C28.6682 30.1046 27.7727 31 26.6682 31H23.6457V27.2558C23.6457 25.7698 22.4411 24.5652 20.9552 24.5652C19.4692 24.5652 18.2646 25.7698 18.2646 27.2558V31H15.0628C13.9582 31 13.0628 30.1046 13.0628 29V22.1304H12.2105C11.542 22.1304 11 21.5885 11 20.9199C11 20.5829 11.1405 20.2611 11.3877 20.032Z" stroke="black"/>
</svg>
