<svg width="20" height="20" viewBox="0 0 20 20" fill="none" xmlns="http://www.w3.org/2000/svg">
<path d="M19.6444 9.24459H17.1555V6.7557C17.1555 6.55659 16.9991 6.40015 16.8 6.40015C16.6009 6.40015 16.4444 6.55659 16.4444 6.7557V9.24459H13.9555C13.7564 9.24459 13.6 9.40104 13.6 9.60015C13.6 9.79926 13.7564 9.9557 13.9555 9.9557H16.4444V12.4446C16.4444 12.6437 16.6009 12.8001 16.8 12.8001C16.9991 12.8001 17.1555 12.6437 17.1555 12.4446V9.9557H19.6444C19.8435 9.9557 20 9.79926 20 9.60015C20 9.40104 19.8364 9.24459 19.6444 9.24459Z" fill="black"/>
<path d="M8.32668 0.213719C8.27796 0.0827301 8.14572 0 8.00652 0C7.86732 0 7.73509 0.0896243 7.67941 0.220614L0.0235504 19.5243C-0.0460483 19.7036 0.04443 19.9035 0.218427 19.9724C0.399383 20.0414 0.60122 19.9517 0.670818 19.7794L3.31557 13.1058H12.6836L15.3283 19.7794C15.384 19.9173 15.5162 20 15.6554 20C15.6972 20 15.7389 19.9931 15.7807 19.9793C15.9617 19.9104 16.0452 19.7104 15.9756 19.5312L8.32668 0.213719ZM3.59396 12.4095L8.00652 1.28232L12.4191 12.4095H3.59396Z" fill="black"/>
<path d="M7.67935 3.31407L4.81183 10.9608C4.77825 11.0523 4.81855 11.1509 4.90585 11.1861C4.926 11.1932 4.94614 11.2002 4.96629 11.2002C5.03344 11.2002 5.09388 11.1579 5.12075 11.0875L7.98826 3.44081C8.02184 3.34927 7.98155 3.2507 7.89425 3.21549C7.80695 3.17324 7.71293 3.22253 7.67935 3.31407Z" fill="black"/>
<path d="M3.89657 14.4118C3.81047 14.3787 3.71775 14.4184 3.68464 14.5045L1.61172 19.775C1.5786 19.8611 1.61834 19.9538 1.70444 19.9869C1.72431 19.9935 1.74417 20.0001 1.76404 20.0001C1.83027 20.0001 1.88987 19.9604 1.91637 19.8942L3.98929 14.6236C4.0224 14.5442 3.97604 14.4449 3.89657 14.4118Z" fill="black"/>
</svg>
