<svg width="23" height="21" viewBox="0 0 23 21" fill="none" xmlns="http://www.w3.org/2000/svg">
<path d="M1.20427 8.59289C0.988353 7.13009 0.880735 6.07008 1.20427 4.80859C1.5278 3.54709 2.82192 0.708921 6.38076 1.02428C8.72765 1.23224 10.2304 2.81164 10.9817 3.86323C11.4061 4.45733 11.5573 5.18695 11.5573 5.9171V19.6305C11.5573 19.6305 2.05755 14.3738 1.20427 8.59289Z" fill="#D81818" stroke="#D81818"/>
<path d="M21.7957 8.59289C22.0116 7.13009 22.1193 6.07008 21.7957 4.80859C21.4722 3.54709 20.1781 0.708921 16.6192 1.02428C14.2723 1.23224 12.7696 2.81164 12.0183 3.86323C11.5939 4.45733 11.4427 5.18695 11.4427 5.9171V19.6305C11.4427 19.6305 20.9425 14.3738 21.7957 8.59289Z" fill="#D81818" stroke="#D81818"/>
</svg>
