<svg width="13" height="15" viewBox="0 0 13 15" fill="none" xmlns="http://www.w3.org/2000/svg">
<path fill-rule="evenodd" clip-rule="evenodd" d="M0 6.5C0 2.91015 2.91015 0 6.5 0C10.0899 0 13 2.91015 13 6.5C13 9.88207 10.4399 12.5626 7.35919 14.1335L7.35916 14.1335C6.81932 14.4087 6.18068 14.4087 5.64084 14.1335L5.64081 14.1335C2.56011 12.5626 0 9.88207 0 6.5ZM6.5 1.11429C3.52555 1.11429 1.11429 3.52555 1.11429 6.5C1.11429 9.27309 3.23281 11.6548 6.14697 13.1408C6.36886 13.2539 6.63114 13.2539 6.85303 13.1408C9.76718 11.6548 11.8857 9.27309 11.8857 6.5C11.8857 3.52555 9.47446 1.11429 6.5 1.11429Z" fill="#5A5A5A"/>
<path fill-rule="evenodd" clip-rule="evenodd" d="M6.50007 4.82864C5.57694 4.82864 4.82864 5.57696 4.82864 6.50007C4.82864 7.42321 5.57693 8.1715 6.50007 8.1715C7.42321 8.1715 8.1715 7.42321 8.1715 6.50007C8.1715 5.57696 7.4232 4.82864 6.50007 4.82864ZM3.71436 6.50007C3.71436 4.96157 4.96152 3.71436 6.50007 3.71436C8.03862 3.71436 9.28578 4.96157 9.28578 6.50007C9.28578 8.03861 8.03861 9.28578 6.50007 9.28578C4.96153 9.28578 3.71436 8.03861 3.71436 6.50007Z" fill="#5A5A5A"/>
</svg>
