<svg width="42" height="42" viewBox="0 0 42 42" fill="none" xmlns="http://www.w3.org/2000/svg">
<path d="M21 41C32.0457 41 41 32.0457 41 21C41 9.9543 32.0457 1 21 1C9.9543 1 1 9.9543 1 21C1 32.0457 9.9543 41 21 41Z" fill="white" stroke="black" stroke-width="0.5"/>
<path d="M15.444 17.993C15.444 17.993 14.5245 11 21.3466 11C28.1688 11 27.0416 17.993 27.0416 17.993" stroke="black"/>
<path d="M25.4395 17.9932H16.8446C14.7213 17.9932 13 19.7145 13 21.8378V23.3072C13 27.804 16.6453 31.4493 21.142 31.4493C25.6388 31.4493 29.2841 27.804 29.2841 23.3072V21.8378C29.2841 19.7145 27.5628 17.9932 25.4395 17.9932Z" stroke="black"/>
<path d="M21.2458 27.3433V23.0786" stroke="black"/>
<ellipse cx="21.2756" cy="23.0788" rx="1.36442" ry="1.21847" fill="black"/>
</svg>
