<svg width="31" height="31" viewBox="0 0 31 31" fill="none" xmlns="http://www.w3.org/2000/svg">
<path fill-rule="evenodd" clip-rule="evenodd" d="M15.4313 0.300049C7.16046 0.300049 0.431335 7.02944 0.431335 15.3007C0.431335 23.5713 7.16046 30.3 15.4313 30.3C23.7022 30.3 30.4313 23.5719 30.4313 15.3007C30.4313 7.02884 23.7022 0.300049 15.4313 0.300049ZM15.4313 29.2837C7.72134 29.2837 1.44857 23.0107 1.44857 15.3C1.44857 7.58975 7.72134 1.31672 15.4313 1.31672C23.141 1.31672 29.4144 7.58975 29.4144 15.3C29.4138 23.0107 23.141 29.2837 15.4313 29.2837Z" fill="black"/>
<path d="M9.96763 16.3365C10.5893 16.3365 11.0933 15.8325 11.0933 15.2107C11.0933 14.589 10.5893 14.085 9.96763 14.085C9.34592 14.085 8.84192 14.589 8.84192 15.2107C8.84192 15.8325 9.34592 16.3365 9.96763 16.3365Z" fill="black"/>
<path fill-rule="evenodd" clip-rule="evenodd" d="M15.6759 14.1716C15.0556 14.1716 14.5499 14.6777 14.5499 15.2983C14.5499 15.918 15.0553 16.4234 15.6759 16.4234C16.2974 16.4234 16.8016 15.9195 16.8016 15.2983C16.8013 14.6771 16.2959 14.1716 15.6759 14.1716Z" fill="black"/>
<path d="M21.3838 16.4233C22.0057 16.4233 22.5098 15.9191 22.5098 15.2972C22.5098 14.6753 22.0057 14.1711 21.3838 14.1711C20.7619 14.1711 20.2578 14.6753 20.2578 15.2972C20.2578 15.9191 20.7619 16.4233 21.3838 16.4233Z" fill="black"/>
</svg>
