<svg width="33" height="32" viewBox="0 0 33 32" fill="none" xmlns="http://www.w3.org/2000/svg">
<path d="M1.56868 1.81689V29.7997C1.56868 30.6281 2.24025 31.2997 3.06868 31.2997H30.0687C30.8971 31.2997 31.5687 30.6281 31.5687 29.7997V7.85474C31.5687 7.02631 30.8971 6.35474 30.0687 6.35474H27.047V27.3281" stroke="black" stroke-width="1.2" stroke-linecap="round" stroke-linejoin="round"/>
<path d="M1.56868 1.2998H25.4135C26.2419 1.2998 26.9135 1.97138 26.9135 2.7998V27.1619" stroke="black" stroke-width="1.2" stroke-linecap="round" stroke-linejoin="round"/>
<path d="M5.18937 5.69629H22.7756" stroke="black" stroke-width="1.2" stroke-linecap="round" stroke-linejoin="round"/>
<path d="M15.5342 9.83398H22.7756" stroke="black" stroke-width="1.2" stroke-linecap="round" stroke-linejoin="round"/>
<path d="M15.5342 13.4551H22.7756" stroke="black" stroke-width="1.2" stroke-linecap="round" stroke-linejoin="round"/>
<path d="M15.5342 17.5928H22.7756" stroke="black" stroke-width="1.2" stroke-linecap="round" stroke-linejoin="round"/>
<path d="M15.5342 21.2134H22.7756" stroke="black" stroke-width="1.2" stroke-linecap="round" stroke-linejoin="round"/>
<path d="M15.5342 26.3857H22.7756" stroke="black" stroke-width="1.2" stroke-linecap="round" stroke-linejoin="round"/>
<path d="M5.18937 21.731H12.4307" stroke="black" stroke-width="1.2" stroke-linecap="round" stroke-linejoin="round"/>
<path d="M5.18937 26.3857H12.4307" stroke="black" stroke-width="1.2" stroke-linecap="round" stroke-linejoin="round"/>
<path d="M12.4307 9.57568H5.18937V18.3688H12.4307V9.57568Z" stroke="black" stroke-width="1.2" stroke-linejoin="round"/>
</svg>
