<svg width="28" height="28" viewBox="0 0 28 28" fill="none" xmlns="http://www.w3.org/2000/svg">
<path d="M14.8784 18.3187V9.70898H17.9193C19.3359 9.70898 20.4269 10.0794 21.1922 10.8203C21.9657 11.5612 22.3524 12.6237 22.3524 14.0078C22.3524 15.3918 21.9657 16.4584 21.1922 17.2074C20.4269 17.9483 19.3359 18.3187 17.9193 18.3187H14.8784ZM16.1485 17.2562H17.846C19.971 17.2562 21.0335 16.1734 21.0335 14.0078C21.0335 11.8502 19.971 10.7715 17.846 10.7715H16.1485V17.2562Z" fill="white"/>
<path d="M5.01904 18.3187L8.85374 9.70898H9.904L13.7509 18.3187H12.4564L11.5527 16.2182H7.19285L6.30135 18.3187H5.01904ZM9.36666 11.1134L7.64471 15.1924H11.1252L9.39108 11.1134H9.36666Z" fill="white"/>
<path fill-rule="evenodd" clip-rule="evenodd" d="M13.739 26.2567C20.6523 26.2567 26.2567 20.6523 26.2567 13.739C26.2567 6.82561 20.6523 1.22124 13.739 1.22124C6.82561 1.22124 1.22124 6.82561 1.22124 13.739C1.22124 20.6523 6.82561 26.2567 13.739 26.2567ZM13.739 27.4779C21.3268 27.4779 27.4779 21.3268 27.4779 13.739C27.4779 6.15114 21.3268 0 13.739 0C6.15114 0 0 6.15114 0 13.739C0 21.3268 6.15114 27.4779 13.739 27.4779Z" fill="white"/>
<path fill-rule="evenodd" clip-rule="evenodd" d="M22.5932 23.8146L4.27459 4.27471L5.16553 3.43945L23.4841 22.9793L22.5932 23.8146Z" fill="white"/>
</svg>
