<svg width="12" height="12" viewBox="0 0 12 12" fill="none" xmlns="http://www.w3.org/2000/svg">
<path fill-rule="evenodd" clip-rule="evenodd" d="M11.9029 5.47578L11.7654 6.93696C11.5388 9.34452 11.4255 10.5483 10.7159 11.2741C10.0064 12 8.94288 12 6.81594 12H5.18406C3.0571 12 1.99363 12 1.28405 11.2741C0.574487 10.5483 0.461189 9.34452 0.234599 6.93696L0.0970846 5.47578C-0.0109214 4.32822 -0.0649213 3.75443 0.131393 3.51724C0.237587 3.38894 0.381995 3.31032 0.536393 3.29676C0.821807 3.27169 1.18025 3.67974 1.89712 4.49584C2.26786 4.9179 2.45323 5.12892 2.66002 5.16162C2.7746 5.17968 2.89135 5.16108 2.99716 5.10786C3.18811 5.01174 3.31542 4.75087 3.57004 4.22911L4.91214 1.47892C5.39328 0.492972 5.63388 0 6 0C6.36612 0 6.60672 0.492972 7.08786 1.47891L8.42994 4.22911C8.68458 4.75087 8.8119 5.01174 9.00282 5.10786C9.10866 5.16108 9.22542 5.17968 9.33996 5.16162C9.54678 5.12892 9.73212 4.9179 10.1029 4.49584C10.8197 3.67974 11.1782 3.27169 11.4636 3.29676C11.618 3.31032 11.7624 3.38894 11.8686 3.51724C12.0649 3.75443 12.0109 4.32822 11.9029 5.47578ZM6.57144 6.4194L6.51246 6.31362C6.28446 5.9046 6.17046 5.70012 6 5.70012C5.82954 5.70012 5.71554 5.9046 5.48754 6.31362L5.42856 6.4194C5.36382 6.53562 5.33142 6.59376 5.2809 6.6321C5.23038 6.67044 5.1675 6.68466 5.04168 6.71316L4.92714 6.73908C4.48438 6.83922 4.26301 6.88932 4.21034 7.0587C4.15767 7.22808 4.30858 7.40454 4.61042 7.75746L4.68851 7.84878C4.77428 7.9491 4.81716 7.99926 4.83648 8.0613C4.85574 8.12334 4.84926 8.19024 4.8363 8.32404L4.82448 8.4459C4.77886 8.91678 4.75604 9.15228 4.8939 9.25692C5.03184 9.36162 5.23908 9.26616 5.65362 9.0753L5.76084 9.02592C5.87868 8.97168 5.93754 8.94456 6 8.94456C6.06246 8.94456 6.12132 8.97168 6.23916 9.02592L6.34638 9.0753C6.76092 9.26616 6.96816 9.36162 7.1061 9.25692C7.24398 9.15228 7.22112 8.91678 7.17552 8.4459L7.1637 8.32404C7.15074 8.19024 7.14426 8.12334 7.16352 8.0613C7.18284 7.99926 7.22574 7.9491 7.31148 7.84878L7.3896 7.75746C7.6914 7.40454 7.84236 7.22808 7.78968 7.0587C7.737 6.88932 7.5156 6.83922 7.07286 6.73908L6.95832 6.71316C6.8325 6.68466 6.76962 6.67044 6.7191 6.6321C6.66858 6.59376 6.63618 6.53562 6.57144 6.4194Z" fill="#FFF500"/>
</svg>
