<svg width="25" height="26" viewBox="0 0 25 26" fill="none" xmlns="http://www.w3.org/2000/svg">
<path d="M23.713 10.2222H21.3741C20.9981 10.2222 20.6884 10.0153 20.5444 9.66806C20.4005 9.32083 20.4736 8.95509 20.7389 8.68935L22.3926 7.03611C22.6356 6.79306 22.7694 6.46944 22.7694 6.12593C22.7694 5.78194 22.6356 5.4588 22.3926 5.21528L20.2847 3.10741C19.7986 2.6213 18.9509 2.62037 18.4639 3.10741L16.8106 4.76065C16.5449 5.02593 16.1782 5.1 15.8319 4.95556C15.4847 4.81157 15.2778 4.50185 15.2778 4.12593V1.78704C15.2778 1.07731 14.7005 0.5 13.9907 0.5H11.0093C10.2995 0.5 9.72222 1.07731 9.72222 1.78704V4.12593C9.72222 4.50185 9.51528 4.81157 9.16806 4.95556C8.82176 5.10046 8.45509 5.02593 8.18935 4.76065L6.53611 3.10741C6.04907 2.62037 5.20139 2.6213 4.71528 3.10741L2.60741 5.21528C2.36435 5.45833 2.23056 5.78194 2.23056 6.12593C2.23056 6.46944 2.36435 6.79259 2.60741 7.03611L4.26111 8.68935C4.52639 8.95509 4.59907 9.32083 4.45556 9.66806C4.31204 10.0153 4.00185 10.2222 3.62593 10.2222H1.28704C0.577315 10.2222 0 10.7995 0 11.5093V14.4903C0 15.2005 0.577315 15.7778 1.28704 15.7778H3.62593C4.00185 15.7778 4.31157 15.9847 4.45556 16.3319C4.59954 16.6792 4.52639 17.0449 4.26111 17.3106L2.60741 18.9639C2.36435 19.2069 2.23056 19.5306 2.23056 19.8741C2.23056 20.2181 2.36435 20.5412 2.60741 20.7847L4.71528 22.8926C5.20185 23.3792 6.04907 23.3801 6.53611 22.8926L8.18935 21.2389C8.45509 20.9736 8.82037 20.9005 9.16806 21.0444C9.51528 21.1884 9.72222 21.4981 9.72222 21.8741V24.213C9.72222 24.9227 10.2995 25.5 11.0093 25.5H13.9903C14.7 25.5 15.2773 24.9227 15.2773 24.213V21.8741C15.2773 21.4981 15.4843 21.1884 15.8315 21.0444C16.1792 20.9 16.5444 20.9736 16.8102 21.2389L18.4634 22.8926C18.9505 23.3796 19.7981 23.3787 20.2843 22.8926L22.3921 20.7847C22.6352 20.5417 22.769 20.2181 22.769 19.8741C22.769 19.5306 22.6352 19.2074 22.3921 18.9639L20.7384 17.3106C20.4731 17.0449 20.4005 16.6792 20.544 16.3319C20.6875 15.9847 20.9981 15.7778 21.3741 15.7778H23.713C24.4227 15.7778 25 15.2005 25 14.4907V11.5093C25 10.7995 24.4227 10.2222 23.713 10.2222ZM24.0741 14.4907C24.0741 14.6898 23.912 14.8519 23.713 14.8519H21.3741C20.6222 14.8519 19.9764 15.2833 19.6889 15.9778C19.4009 16.6722 19.5523 17.4343 20.0843 17.9657L21.738 19.619C21.8792 19.7602 21.8792 19.9894 21.738 20.1301L19.6301 22.238C19.4894 22.3787 19.2602 22.3796 19.119 22.238L17.4657 20.5843C16.9338 20.0523 16.1722 19.9018 15.4778 20.1889C14.7833 20.4764 14.3519 21.1222 14.3519 21.8741V24.213C14.3519 24.412 14.1898 24.5741 13.9907 24.5741H11.0093C10.8102 24.5741 10.6481 24.412 10.6481 24.213V21.8741C10.6481 21.1222 10.2167 20.4764 9.52222 20.1889C9.28935 20.0921 9.04954 20.0449 8.8125 20.0449C8.34306 20.0449 7.88796 20.2301 7.53426 20.5838L5.88102 22.2375C5.73935 22.3792 5.51019 22.3782 5.36991 22.2375L3.26204 20.1296C3.12083 19.9884 3.12083 19.7593 3.26204 19.6185L4.91574 17.9653C5.44722 17.4338 5.59907 16.6718 5.31111 15.9773C5.02361 15.2833 4.37778 14.8519 3.62593 14.8519H1.28704C1.08796 14.8519 0.925926 14.6898 0.925926 14.4907V11.5093C0.925926 11.3102 1.08796 11.1481 1.28704 11.1481H3.62593C4.37778 11.1481 5.02361 10.7167 5.31111 10.0222C5.59907 9.32778 5.44768 8.56574 4.91574 8.03426L3.26204 6.38102C3.12083 6.23981 3.12083 6.01065 3.26204 5.86991L5.36991 3.76204C5.51065 3.62083 5.73981 3.62083 5.88102 3.76204L7.53426 5.41528C8.06528 5.9463 8.82685 6.09861 9.52222 5.81065C10.2167 5.52361 10.6481 4.87778 10.6481 4.12593V1.78704C10.6481 1.58796 10.8102 1.42593 11.0093 1.42593H13.9903C14.1898 1.42593 14.3519 1.58796 14.3519 1.78704V4.12593C14.3519 4.87778 14.7833 5.52361 15.4778 5.81111C16.1731 6.09907 16.9343 5.94722 17.4657 5.41574L19.119 3.7625C19.2606 3.6213 19.4898 3.6213 19.6301 3.7625L21.738 5.87037C21.8792 6.01157 21.8792 6.24074 21.738 6.38148L20.0843 8.03472C19.5528 8.5662 19.4009 9.32824 19.6889 10.0227C19.9764 10.7171 20.6222 11.1486 21.3741 11.1486H23.713C23.912 11.1481 24.0741 11.3102 24.0741 11.5093V14.4907Z" fill="black"/>
<path d="M12.5 8.83325C10.2024 8.83325 8.33337 10.7022 8.33337 12.9999C8.33337 15.2976 10.2024 17.1666 12.5 17.1666C14.7977 17.1666 16.6667 15.2976 16.6667 12.9999C16.6667 10.7022 14.7977 8.83325 12.5 8.83325ZM12.5 16.2407C10.7135 16.2407 9.2593 14.7865 9.2593 12.9999C9.2593 11.2133 10.7135 9.75918 12.5 9.75918C14.2866 9.75918 15.7408 11.2133 15.7408 12.9999C15.7408 14.7865 14.2866 16.2407 12.5 16.2407Z" fill="black"/>
</svg>
