<svg width="25" height="25" viewBox="0 0 25 25" fill="none" xmlns="http://www.w3.org/2000/svg">
<path fill-rule="evenodd" clip-rule="evenodd" d="M23.4134 16.3101C23.6043 15.4821 23.7069 14.6381 23.7069 13.7933C23.7069 9.87301 21.7108 6.30318 18.3668 4.24456C18.163 4.11956 17.8983 4.18292 17.7737 4.3855C17.6487 4.58852 17.7121 4.85361 17.9147 4.97861C21.0017 6.87947 22.8449 10.1743 22.8449 13.7933C22.8449 14.5372 22.7586 15.2808 22.5979 16.0118C22.3992 15.9704 22.1936 15.9484 21.9828 15.9484C20.319 15.9484 18.9655 17.3023 18.9655 18.9657C18.9655 20.629 20.319 21.9829 21.9828 21.9829C23.6466 21.9829 25 20.629 25 18.9657C25 17.8196 24.3574 16.8208 23.4134 16.3101ZM21.9828 21.1208C20.7944 21.1208 19.8276 20.154 19.8276 18.9657C19.8276 17.7773 20.7944 16.8105 21.9828 16.8105C23.1711 16.8105 24.138 17.7773 24.138 18.9657C24.138 20.154 23.1711 21.1208 21.9828 21.1208Z" fill="black"/>
<path fill-rule="evenodd" clip-rule="evenodd" d="M16.453 23.3544C15.1965 23.8742 13.8668 24.138 12.5 24.138C9.74784 24.138 7.10043 23.0281 5.16509 21.0811C5.70215 20.5359 6.03448 19.7893 6.03448 18.9656C6.03448 17.3022 4.68103 15.9484 3.01724 15.9484C1.35345 15.9484 0 17.3022 0 18.9656C0 20.629 1.35345 21.9828 3.01724 21.9828C3.54569 21.9828 4.04224 21.8453 4.47457 21.6057C6.57759 23.7656 9.48017 25.0001 12.5 25.0001C13.9806 25.0001 15.4215 24.7143 16.7828 24.1505C17.0026 24.0596 17.1073 23.8074 17.0164 23.5872C16.9254 23.3678 16.6728 23.2634 16.453 23.3544ZM0.862069 18.9656C0.862069 17.7772 1.82888 16.8104 3.01724 16.8104C4.2056 16.8104 5.17241 17.7772 5.17241 18.9656C5.17241 20.154 4.2056 21.1208 3.01724 21.1208C1.82888 21.1208 0.862069 20.154 0.862069 18.9656Z" fill="black"/>
<path fill-rule="evenodd" clip-rule="evenodd" d="M1.72415 13.4539C1.73449 13.4547 1.74484 13.4552 1.75475 13.4552C1.97932 13.4552 2.16811 13.2819 2.18449 13.0543C2.49139 8.7056 5.45432 5.07155 9.60691 3.86724C9.97501 5.1181 11.1315 6.03448 12.5 6.03448C14.1638 6.03448 15.5173 4.6806 15.5173 3.01724C15.5173 1.35388 14.1638 0 12.5 0C10.8401 0 9.48923 1.34784 9.4832 3.00647C4.92242 4.27672 1.65993 8.24138 1.32458 12.994C1.30777 13.231 1.48665 13.4375 1.72415 13.4539ZM12.5 0.862069C13.6884 0.862069 14.6552 1.82888 14.6552 3.01724C14.6552 4.2056 13.6884 5.17241 12.5 5.17241C11.3116 5.17241 10.3448 4.2056 10.3448 3.01724C10.3448 1.82888 11.3116 0.862069 12.5 0.862069Z" fill="black"/>
</svg>
