<svg width="33" height="32" viewBox="0 0 33 32" fill="none" xmlns="http://www.w3.org/2000/svg">
<path d="M5.96209 26.9066C3.8643 24.8089 2.43569 22.1361 1.85691 19.2264C1.27813 16.3167 1.57518 13.3007 2.71049 10.5598C3.84581 7.81889 5.7684 5.47621 8.23514 3.82799C10.7019 2.17977 13.602 1.30004 16.5687 1.30005" stroke="black" stroke-width="1.2" stroke-linecap="round" stroke-linejoin="round"/>
<path d="M27.1753 5.69336C29.2731 7.79114 30.7017 10.4639 31.2805 13.3736C31.8592 16.2833 31.5622 19.2993 30.4269 22.0402C29.2916 24.7811 27.369 27.1238 24.9022 28.772C22.4355 30.4202 19.5354 31.3 16.5687 31.2999" stroke="black" stroke-width="1.2" stroke-linecap="round" stroke-linejoin="round"/>
<path d="M24.8795 7.17839C26.2229 7.17839 27.312 6.08934 27.312 4.74594C27.312 3.40253 26.2229 2.31348 24.8795 2.31348C23.5361 2.31348 22.447 3.40253 22.447 4.74594C22.447 6.08934 23.5361 7.17839 24.8795 7.17839Z" stroke="black" stroke-width="1.2" stroke-linecap="round" stroke-linejoin="round"/>
<path d="M8.25778 30.2865C9.60119 30.2865 10.6902 29.1975 10.6902 27.8541C10.6902 26.5107 9.60119 25.4216 8.25778 25.4216C6.91437 25.4216 5.82532 26.5107 5.82532 27.8541C5.82532 29.1975 6.91437 30.2865 8.25778 30.2865Z" stroke="black" stroke-width="1.2" stroke-linecap="round" stroke-linejoin="round"/>
<path d="M13.3933 13.4529L15.826 18.3181L23.9341 17.5077L19.0692 7.77759L13.3933 13.4529Z" stroke="black" stroke-width="1.2" stroke-linecap="round" stroke-linejoin="round"/>
<path d="M13.3933 13.4529L10.1501 15.0745C9.17547 15.5618 9.25778 17.3437 9.74493 18.3181C10.2321 19.2925 11.6083 20.427 12.5828 19.9397L15.826 18.3181" stroke="black" stroke-width="1.2" stroke-linecap="round" stroke-linejoin="round"/>
<path d="M15.1092 18.7324L17.1362 22.7863L15.5148 23.5973L13.4878 19.5434" stroke="black" stroke-width="1.2" stroke-linecap="round" stroke-linejoin="round"/>
</svg>
