<svg width="30" height="30" viewBox="0 0 30 30" fill="none" xmlns="http://www.w3.org/2000/svg">
<path d="M29.1663 17.833V24.1663C29.1663 26.9278 26.9278 29.1663 24.1663 29.1663H5.83301C3.07159 29.1663 0.833008 26.9278 0.833008 24.1663V5.83301C0.833008 3.07159 3.07158 0.833008 5.83301 0.833008H17.833V2.24967H7.24967C4.48825 2.24967 2.24967 4.48825 2.24967 7.24967V22.7497C2.24967 25.5111 4.48825 27.7497 7.24967 27.7497H22.7497C25.5111 27.7497 27.7497 25.5111 27.7497 22.7497V17.833H29.1663ZM22.9982 4.16784L26.6985 7.91634H19.9679C18.7617 7.91224 17.5665 8.14598 16.4507 8.60419C15.3348 9.0624 14.3203 9.73609 13.465 10.5867C12.6098 11.4374 11.9306 12.4483 11.4664 13.5616C11.0022 14.6749 10.762 15.8689 10.7596 17.0751V22.083H12.1663V17.0751C12.1695 16.0543 12.3739 15.0441 12.7678 14.1023C13.1617 13.1605 13.7374 12.3057 14.462 11.5866C15.1866 10.8675 16.0459 10.2984 16.9906 9.91168C17.9354 9.52499 18.9471 9.32835 19.9679 9.33301H26.7977L22.9982 13.0815L23.9998 14.0831L29.4596 8.62467L24.0012 3.16484L22.9982 4.16784Z" fill="black"/>
</svg>
