<svg width="32" height="32" viewBox="0 0 32 32" fill="none" xmlns="http://www.w3.org/2000/svg">
<path d="M0 15.9969C0 16.4954 0.398754 16.8941 0.897196 16.8941H22.5695L17.924 21.5396C17.5718 21.8918 17.5718 22.4567 17.924 22.809C18.0968 22.9818 18.3294 23.0748 18.5553 23.0748C18.7813 23.0748 19.0139 22.9884 19.1867 22.809L25.3674 16.6283C25.7196 16.2761 25.7196 15.7112 25.3674 15.3589L19.1867 9.17824C18.8345 8.826 18.2696 8.826 17.9173 9.17824C17.5651 9.53047 17.5651 10.0954 17.9173 10.4476L22.5628 15.0931H0.897196C0.398754 15.0997 0 15.4985 0 15.9969Z" fill="black"/>
<path d="M25.4139 0H6.57944C2.95078 0 0 2.95078 0 6.57944V10.4474C0 10.9458 0.398754 11.3445 0.897196 11.3445C1.39564 11.3445 1.79439 10.9458 1.79439 10.4474V6.57944C1.79439 3.94102 3.94102 1.79439 6.57944 1.79439H25.4206C28.059 1.79439 30.2056 3.94102 30.2056 6.57944V25.4206C30.2056 28.059 28.059 30.2056 25.4206 30.2056H6.57944C3.94102 30.2056 1.79439 28.059 1.79439 25.4206V21.5992C1.79439 21.1007 1.39564 20.702 0.897196 20.702C0.398754 20.702 0 21.1007 0 21.5992V25.4206C0 29.0492 2.95078 32 6.57944 32H25.4206C29.0492 32 32 29.0492 32 25.4206V6.57944C31.9934 2.95078 29.0426 0 25.4139 0Z" fill="black"/>
</svg>
