<svg width="30" height="36" viewBox="0 0 30 36" fill="none" xmlns="http://www.w3.org/2000/svg">
<path d="M8.43475 17.9297L7.37402 18.9904L14.9975 26.6138L22.6209 18.9904L21.5602 17.9297L15.7473 23.7426V0H14.2476V23.7426L8.43475 17.9297Z" fill="black"/>
<path d="M19.4982 7.49805C19.0841 7.49805 18.7484 7.83375 18.7484 8.24787C18.7484 8.66199 19.0841 8.99769 19.4982 8.99769H23.6237C26.3162 8.99769 28.4989 11.1804 28.4989 13.873V29.4973C28.4989 32.2588 26.2604 34.4973 23.4989 34.4973H6.49965C3.73823 34.4973 1.49965 32.2588 1.49965 29.4973V13.873C1.49965 11.1804 3.68238 8.99769 6.37491 8.99769H10.5004C10.9145 8.99769 11.2502 8.66199 11.2502 8.24787C11.2502 7.83375 10.9145 7.49805 10.5004 7.49805H5C2.23857 7.49805 0 9.73662 0 12.498V30.9984C0 33.7598 2.23858 35.9984 5 35.9984H25C27.7614 35.9984 30 33.7598 30 30.9984V12.498C30 9.73662 27.7614 7.49805 25 7.49805H19.4982Z" fill="black"/>
</svg>
