<svg width="55" height="20" viewBox="0 0 55 20" fill="none" xmlns="http://www.w3.org/2000/svg">
<path d="M19.9957 8.25551V11.7445C19.9957 12.2133 19.6198 12.5949 19.1577 12.5949H18.1013C17.6394 12.5949 17.2634 12.2135 17.2634 11.7445V8.25551C17.2634 7.78673 17.6392 7.4051 18.1013 7.4051H19.1577C19.6198 7.40531 19.9957 7.78673 19.9957 8.25551ZM55 4.36225V15.6378C55 18.0431 53.0717 20 50.7016 20H4.29845C1.92832 20 0 18.0431 0 15.6378V4.36225C0 1.95694 1.92832 0 4.29845 0H50.7016C53.0717 0 55 1.95694 55 4.36225ZM13.707 14.1255C13.707 13.2802 13.0317 12.5949 12.1987 12.5949H8.53314V5.87469C8.53314 5.02939 7.85786 4.34408 7.02492 4.34408C6.19197 4.34408 5.51669 5.02939 5.51669 5.87469V14.1255C5.51669 14.9708 6.19197 15.6561 7.02492 15.6561H12.1987C13.0317 15.6561 13.707 14.9708 13.707 14.1255ZM23.0121 8.25551C23.0121 6.09877 21.2831 4.34388 19.1577 4.34388H18.1013C15.9761 4.34388 14.2469 6.09857 14.2469 8.25551V11.7445C14.2469 13.9012 15.9759 15.6561 18.1013 15.6561H19.1577C21.2831 15.6561 23.0121 13.9014 23.0121 11.7445V8.25551ZM33.2709 11.7445C33.2709 10.8992 32.5956 10.2139 31.7627 10.2139H30.3908C29.5578 10.2139 28.8825 10.8992 28.8825 11.7445C28.8825 12.0592 28.9761 12.3516 29.1365 12.5949H28.3603C27.8984 12.5949 27.5223 12.2135 27.5223 11.7445V8.25551C27.5223 7.78673 27.8982 7.4051 28.3603 7.4051H29.4167C29.6787 7.4051 29.8625 7.52041 29.9705 7.61735C30.5951 8.17694 31.5481 8.11653 32.0993 7.48286C32.6505 6.84918 32.5912 5.88184 31.9668 5.32245C31.2625 4.69143 30.3568 4.34408 29.4167 4.34408H28.3603C26.2351 4.34408 24.5059 6.09878 24.5059 8.25572V11.7447C24.5059 13.9014 26.2349 15.6563 28.3603 15.6563H29.4167C31.5418 15.6561 33.2709 13.9014 33.2709 11.7445ZM37.7419 5.87469C37.7419 5.02939 37.0666 4.34408 36.2336 4.34408C35.4007 4.34408 34.7254 5.02939 34.7254 5.87469V14.1255C34.7254 14.9708 35.4007 15.6561 36.2336 15.6561C37.0666 15.6561 37.7419 14.9708 37.7419 14.1255V5.87469ZM48.953 5.87469C48.953 5.02939 48.2777 4.34408 47.4448 4.34408C46.6118 4.34408 45.9366 5.02939 45.9366 5.87469V9.67061L42.2999 4.93408C41.9042 4.41837 41.2295 4.21469 40.6202 4.42735C40.011 4.6398 39.602 5.22122 39.602 5.8749V14.1257C39.602 14.971 40.2773 15.6563 41.1102 15.6563C41.9432 15.6563 42.6185 14.971 42.6185 14.1257V10.3298L46.2551 15.0663C46.5465 15.4459 46.9889 15.6563 47.445 15.6563C47.6085 15.6563 47.774 15.6292 47.9349 15.5733C48.544 15.3608 48.953 14.7792 48.953 14.1257V5.87469Z" fill="#FBB600"/>
</svg>
