<svg width="31" height="31" viewBox="0 0 31 31" fill="none" xmlns="http://www.w3.org/2000/svg">
<path d="M25.9636 13.8391H4.89977C3.10544 13.8391 1.64604 15.2547 1.64604 16.9951V19.918V20.8541L2.60093 20.9866C3.1528 21.0634 3.56935 21.5291 3.56935 22.0696C3.56935 22.6101 3.15304 23.0758 2.60141 23.1525L1.64604 23.2851V24.2213V27.1446C1.64604 28.8844 3.10544 30.3001 4.89977 30.3001H25.9636C27.7579 30.3001 29.2175 28.8844 29.2175 27.1446V24.2408V23.2103L28.156 23.1621C27.553 23.135 27.0802 22.655 27.0802 22.0697C27.0802 21.4848 27.553 21.0048 28.1564 20.9771L29.2175 20.9285V19.8984V16.9951C29.2175 15.2547 27.7579 13.8391 25.9636 13.8391ZM28.1039 19.8984C26.9146 19.9532 25.967 20.9027 25.967 22.0697C25.967 23.237 26.9146 24.1869 28.1039 24.2408V27.1446C28.1039 28.291 27.1455 29.2205 25.9636 29.2205H4.89977C3.71754 29.2205 2.75921 28.291 2.75921 27.1446V24.2213C3.8461 24.0702 4.68252 23.1659 4.68252 22.0696C4.68252 20.9737 3.84604 20.0695 2.75921 19.918V16.9951C2.75921 15.8482 3.71754 14.9188 4.89977 14.9188H25.9636C27.1455 14.9188 28.1039 15.8482 28.1039 16.9951V19.8984Z" fill="#060606"/>
<path d="M8.77448 26.0471H8.03804V27.9104H8.77448V26.0471Z" fill="#060606"/>
<path d="M8.77448 22.7744H8.03804V24.6372H8.77448V22.7744Z" fill="#060606"/>
<path d="M8.77448 19.5015H8.03804V21.3647H8.77448V19.5015Z" fill="#060606"/>
<path d="M8.77448 16.2288H8.03804V18.092H8.77448V16.2288Z" fill="#060606"/>
<path d="M6.68621 10.8914L6.04263 11.2383L6.97668 12.8661L7.62002 12.5191L6.68621 10.8914Z" fill="#060606"/>
<path d="M30.0225 10.7898L28.5669 8.25204L28.0499 7.35204L27.0984 7.81059C26.5578 8.07086 25.9042 7.87446 25.6112 7.36299C25.3173 6.852 25.4903 6.20946 26.0034 5.90108L26.9067 5.35815L26.3897 4.45768L24.9345 1.92093C24.0621 0.40048 22.0771 -0.148661 20.5089 0.697901L2.10263 10.6301C0.534613 11.4762 -0.0310347 13.4018 0.841329 14.9224L0.894191 15.0149C1.09174 14.6402 1.34306 14.2975 1.63872 13.9948C1.34856 13.0782 1.74517 12.0586 2.64375 11.5734L21.0505 1.64114C22.0835 1.08345 23.3869 1.4438 23.9619 2.44575L25.4171 4.98298C24.4051 5.59118 24.0533 6.86864 24.6381 7.88817C25.2229 8.90776 26.5273 9.29102 27.5938 8.77715L29.0494 11.315C29.4888 12.08 29.3719 12.9961 28.8337 13.6353C29.1222 13.8674 29.3768 14.1368 29.5979 14.4304C30.4983 13.4557 30.7145 11.9962 30.0225 10.7898Z" fill="#060606"/>
</svg>
