<svg width="13" height="13" viewBox="0 0 13 13" fill="none" xmlns="http://www.w3.org/2000/svg">
<path d="M11.064 5.8667H1.93631C1.15877 5.8667 0.526367 6.48014 0.526367 7.23429V8.50087V8.90651L0.940152 8.96395C1.1793 8.99721 1.3598 9.19901 1.3598 9.43324C1.3598 9.66747 1.1794 9.86927 0.940362 9.90251L0.526367 9.95994V10.3656V11.6324C0.526367 12.3863 1.15877 12.9998 1.93631 12.9998H11.064C11.8415 12.9998 12.474 12.3863 12.474 11.6324V10.3741V9.92755L12.014 9.90667C11.7527 9.89492 11.5478 9.68692 11.5478 9.43327C11.5478 9.17982 11.7527 8.97182 12.0142 8.95983L12.474 8.93876V8.49239V7.23429C12.474 6.48014 11.8415 5.8667 11.064 5.8667ZM11.9914 8.49239C11.4761 8.51616 11.0654 8.92759 11.0654 9.43327C11.0654 9.93912 11.4761 10.3508 11.9914 10.3741V11.6324C11.9914 12.1292 11.5761 12.532 11.064 12.532H1.93631C1.42402 12.532 1.00874 12.1292 1.00874 11.6324V10.3656C1.47973 10.3002 1.84218 9.90832 1.84218 9.43324C1.84218 8.95836 1.4797 8.56653 1.00874 8.50087V7.23429C1.00874 6.73732 1.42402 6.33455 1.93631 6.33455H11.064C11.5761 6.33455 11.9914 6.73732 11.9914 7.23429V8.49239Z" fill="black"/>
<path d="M3.61551 11.1572H3.29639V11.9646H3.61551V11.1572Z" fill="black"/>
<path d="M3.61551 9.73877H3.29639V10.546H3.61551V9.73877Z" fill="black"/>
<path d="M3.61551 8.3208H3.29639V9.12822H3.61551V8.3208Z" fill="black"/>
<path d="M3.61551 6.90234H3.29639V7.70974H3.61551V6.90234Z" fill="black"/>
<path d="M2.71053 4.58984L2.43164 4.74021L2.83639 5.44558L3.11517 5.29522L2.71053 4.58984Z" fill="black"/>
<path d="M12.8228 4.54555L12.1921 3.44586L11.968 3.05586L11.5557 3.25457C11.3215 3.36735 11.0382 3.28224 10.9113 3.06061C10.7839 2.83918 10.8589 2.56074 11.0812 2.42711L11.4727 2.19184L11.2486 1.80164L10.618 0.702381C10.24 0.04352 9.37984 -0.194441 8.70026 0.172403L0.724229 4.47634C0.0447534 4.84298 -0.20036 5.67744 0.177664 6.33635L0.200571 6.37642C0.286176 6.21407 0.395081 6.06556 0.5232 5.93439C0.397463 5.53721 0.569328 5.09539 0.958714 4.8851L8.93495 0.581141C9.38261 0.339473 9.9474 0.495625 10.1966 0.929804L10.8272 2.02927C10.3886 2.29282 10.2362 2.84639 10.4896 3.28819C10.743 3.73001 11.3082 3.89609 11.7704 3.67341L12.4012 4.77313C12.5916 5.10463 12.5409 5.50164 12.3077 5.77862C12.4327 5.8792 12.543 5.99592 12.6389 6.12315C13.029 5.7008 13.1227 5.06835 12.8228 4.54555Z" fill="black"/>
</svg>
