<svg width="25" height="25" viewBox="0 0 25 25" fill="none" xmlns="http://www.w3.org/2000/svg">
<path fill-rule="evenodd" clip-rule="evenodd" d="M10.6437 9.80097H7.4943C7.22394 9.80097 7.00475 10.0236 7.00475 10.2983C7.00475 10.5729 7.22394 10.7956 7.4943 10.7956H10.1089C9.87843 12.0487 8.79372 13.0003 7.4943 13.0003C6.02766 13.0003 4.8345 11.7882 4.8345 10.2982C4.8345 8.80831 6.02766 7.59621 7.4943 7.59621C8.20475 7.59621 8.87267 7.87731 9.37506 8.38762C9.56627 8.58187 9.87623 8.58187 10.0673 8.38762C10.2586 8.19338 10.2586 7.8785 10.0673 7.68435C9.37999 6.98609 8.46623 6.60156 7.49426 6.60156C5.48772 6.60156 3.85535 8.25985 3.85535 10.2982C3.85535 12.3366 5.48772 13.9949 7.49426 13.9949C9.50079 13.9949 11.1332 12.3366 11.1332 10.2982C11.1332 10.0236 10.914 9.80097 10.6437 9.80097Z" fill="black"/>
<path fill-rule="evenodd" clip-rule="evenodd" d="M22.9653 4.37698H13.1703L11.8551 0.34151C11.7888 0.137939 11.6014 0.000488281 11.3904 0.000488281H2.03462C0.912742 0.000488281 0 0.92772 0 2.0674V18.5561C0 19.6958 0.912742 20.623 2.03462 20.623H11.9538L13.2757 24.6592C13.3423 24.8624 13.5294 24.9995 13.7402 24.9995H22.9654C24.0873 24.9995 25 24.0723 25 22.9326V6.44389C25 5.30421 24.0872 4.37698 22.9653 4.37698ZM2.03462 19.6284C1.45263 19.6284 0.979148 19.1474 0.979148 18.5561V2.0674C0.979148 1.47618 1.45263 0.995181 2.03462 0.995181H11.0367L14.4884 11.5863C14.4886 11.587 14.4889 11.5876 14.4892 11.5884L17.1095 19.6284H2.03462ZM16.477 13.8529C16.5163 13.908 17.0055 14.5909 17.7638 15.5427C17.5501 15.8282 17.3236 16.1118 17.0846 16.3877L15.6339 11.9364H19.9034C19.6009 12.5827 19.0764 13.6136 18.356 14.701C17.6942 13.8617 17.2784 13.2813 17.2696 13.269C17.1109 13.0467 16.8048 12.9971 16.5859 13.1584C16.3671 13.3196 16.3183 13.6305 16.477 13.8529ZM12.9856 20.623H16.6556L13.9455 23.5538L12.9856 20.623ZM24.0208 22.9326C24.0208 23.5238 23.5474 24.0048 22.9654 24.0048H14.8718L18.144 20.4662C18.1583 20.4507 18.1717 20.4343 18.184 20.4169C18.276 20.2874 18.3013 20.1209 18.2519 19.9693L17.437 17.4692C17.7824 17.1019 18.105 16.7181 18.4041 16.3301C19.0534 17.1124 19.8219 17.9891 20.6393 18.8195C20.7349 18.9166 20.8602 18.9652 20.9855 18.9652C21.1107 18.9652 21.236 18.9167 21.3316 18.8195C21.5228 18.6253 21.5228 18.3104 21.3316 18.1163C20.479 17.2501 19.6708 16.3184 19.0031 15.5055C20.0408 13.9925 20.7137 12.554 20.9824 11.9364H22.0299C22.3003 11.9364 22.5195 11.7137 22.5195 11.4391C22.5195 11.1644 22.3003 10.9418 22.0299 10.9418H20.6524H20.6498H18.7988V10.0466C18.7988 9.77192 18.5797 9.54925 18.3093 9.54925C18.0389 9.54925 17.8197 9.77192 17.8197 10.0466V10.9417H15.3097L13.4944 5.37167H22.9653C23.5473 5.37167 24.0208 5.85267 24.0208 6.44389L24.0208 22.9326Z" fill="black"/>
</svg>
