<svg width="139" height="126" viewBox="0 0 139 126" fill="none" xmlns="http://www.w3.org/2000/svg">
<path d="M74.9915 59.9282H64.0083V93.5484H74.9915V59.9282Z" fill="#FFC26D"/>
<path d="M74.9915 59.9282V69.2383C73.2988 69.9422 71.444 70.3331 69.4999 70.3331C67.5558 70.3331 65.701 69.9422 64.0083 69.2383V59.9282H74.9915Z" fill="#FF9A1B"/>
<path d="M102.116 103.28C101.326 103.28 100.569 102.831 100.213 102.067C99.7242 101.017 100.179 99.769 101.229 99.2801C110.306 95.053 116.989 89.0861 121.094 81.5453C124.388 75.495 126.063 68.3881 126.075 60.4219C126.094 46.6364 121.062 34.942 121.012 34.8255C120.549 33.7643 121.033 32.5279 122.094 32.0642C123.155 31.6008 124.391 32.0838 124.855 33.1445C125.076 33.6486 130.258 45.6547 130.27 60.2946C130.28 74.016 125.558 92.5776 103 103.083C102.714 103.216 102.412 103.28 102.116 103.28Z" fill="#FA8916"/>
<path d="M123.023 17.933C125.325 24.5985 125.937 34.2891 122.924 35.33C119.91 36.3709 114.412 28.3672 112.11 21.7017C109.808 15.0363 111.575 12.2332 114.588 11.1923C117.602 10.152 120.721 11.2678 123.023 17.933Z" fill="#FFDBAA"/>
<path d="M122.923 35.3287C122.222 35.5717 121.384 35.323 120.482 34.714C121.443 31.2168 120.666 24.5743 118.951 19.6078C117.13 14.3369 114.797 12.5381 112.409 12.5297C112.996 11.915 113.742 11.4823 114.588 11.1918C117.602 10.1528 120.722 11.2672 123.024 17.9319C125.326 24.5996 125.937 34.2897 122.923 35.3287Z" fill="#FFC26D"/>
<path d="M128.283 61.195C126.892 62.2228 124.007 60.9294 120.99 58.6278C118.446 56.6837 115.806 54.0245 113.887 51.4294C109.694 45.7562 110.541 42.5551 113.105 40.6585C115.596 38.8175 118.795 38.8903 122.823 44.1052C122.94 44.2532 123.054 44.4069 123.172 44.5662C127.362 50.2367 130.848 59.2984 128.283 61.195Z" fill="#FFB54E"/>
<path d="M128.284 61.1949C126.893 62.2227 124.007 60.9294 120.991 58.6277C120.826 57.4378 120.778 56.0942 120.848 54.6027C121.002 51.2786 121.728 47.4575 122.823 44.1055C122.94 44.2534 123.055 44.4071 123.172 44.5664C127.362 50.2367 130.848 59.2983 128.284 61.1949Z" fill="#FF9A1B"/>
<path d="M126.994 44.0331C124.509 50.6323 123.63 60.3026 126.614 61.4263C129.597 62.5497 135.315 54.7011 137.799 48.1015C140.284 41.5023 138.596 38.6514 135.612 37.5277C132.628 36.4043 129.479 37.4338 126.994 44.0331Z" fill="#FFDBAA"/>
<path d="M137.8 48.1028C135.314 54.7005 129.599 62.5496 126.613 61.4268C125.917 61.167 125.434 60.4407 125.13 59.3988C128.108 57.3485 131.778 51.709 133.638 46.7704C135.596 41.5666 134.962 38.6951 133.144 37.1615C133.968 37.0749 134.797 37.2201 135.613 37.5274C138.596 38.653 140.283 41.5022 137.8 48.1028Z" fill="#FFC26D"/>
<path d="M121.088 89.6166C119.404 90.0132 117.264 87.6836 115.401 84.3764C113.828 81.5888 112.454 78.0999 111.714 74.9602C110.099 68.0971 112.141 65.4854 115.245 64.7562C118.264 64.0468 121.175 65.3762 122.817 71.7618C122.865 71.9434 122.909 72.1278 122.954 72.3176C124.566 79.1837 124.191 88.8846 121.088 89.6166Z" fill="#FFB54E"/>
<path d="M121.088 89.6165C119.404 90.0131 117.264 87.6835 115.401 84.3763C115.717 83.217 116.203 81.9658 116.856 80.6222C118.312 77.6277 120.488 74.4071 122.817 71.7617C122.865 71.9433 122.91 72.1277 122.954 72.3174C124.566 79.1836 124.191 88.8845 121.088 89.6165Z" fill="#FF9A1B"/>
<path d="M126.676 73.3385C121.789 78.4216 117.164 86.96 119.463 89.1696C121.761 91.3793 130.111 86.4238 134.999 81.3408C139.886 76.2578 139.46 72.972 137.162 70.7622C134.864 68.5525 131.564 68.2555 126.676 73.3385Z" fill="#FFDBAA"/>
<path d="M134.998 81.3402C130.11 86.424 121.761 91.3791 119.462 89.1698C119.107 88.8291 118.918 88.3347 118.87 87.7258C122.418 86.6838 127.49 83.2118 130.89 79.6781C135.649 74.7284 135.37 71.4825 133.23 69.2732C134.8 69.1168 136.091 69.7312 137.161 70.762C139.46 72.9714 139.887 76.259 134.998 81.3402Z" fill="#FFC26D"/>
<path d="M36.8843 103.279C36.5878 103.279 36.2865 103.216 36.0001 103.083C13.4421 92.5768 8.7199 74.0154 8.73049 60.2938C8.74189 45.6542 13.9243 33.6478 14.145 33.1437C14.6095 32.0824 15.8461 31.5986 16.9079 32.0634C17.9686 32.5279 18.4524 33.764 17.9887 34.825C17.9379 34.9417 12.9067 46.6359 12.9257 60.4214C12.9369 68.3878 14.6125 75.4947 17.9061 81.5448C22.0113 89.0855 28.6947 95.0525 37.7712 99.2795C38.8213 99.7685 39.2761 101.016 38.7871 102.067C38.4315 102.83 37.6746 103.279 36.8843 103.279Z" fill="#FA8916"/>
<path d="M15.977 17.9332C13.6751 24.5987 13.0629 34.2894 16.0764 35.3302C19.0899 36.3711 24.5882 28.3675 26.8902 21.702C29.1921 15.0365 27.4258 12.2334 24.412 11.1925C21.3983 10.1516 18.2789 11.268 15.977 17.9332Z" fill="#FFDBAA"/>
<path d="M26.8896 21.7031C24.588 28.368 19.0907 36.3706 16.0766 35.3289C15.3363 35.0748 14.814 34.2981 14.4844 33.1698C17.4172 31.072 20.9677 25.2872 22.7022 20.2647C24.4397 15.2311 23.8587 12.3987 22.1715 10.8708C22.9145 10.8095 23.666 10.9352 24.4118 11.192C27.4261 12.2337 29.1912 15.0354 26.8896 21.7031Z" fill="#FFC26D"/>
<path d="M10.7166 61.195C12.1077 62.2228 14.993 60.9294 18.0097 58.6278C20.5544 56.6837 23.194 54.0245 25.1131 51.4294C29.306 45.7562 28.4595 42.5551 25.8953 40.6585C23.4036 38.8175 20.2052 38.8903 16.1775 44.1052C16.0602 44.2532 15.9457 44.4069 15.8284 44.5662C11.6385 50.2367 8.15241 59.2984 10.7166 61.195Z" fill="#FFB54E"/>
<path d="M25.1129 51.4293C23.1938 54.0241 20.5542 56.6833 18.0095 58.6277C14.9928 60.9294 12.1072 62.2227 10.7164 61.1949C10.3393 60.9155 10.0906 60.4771 9.95947 59.9211C11.1271 59.4126 12.4427 58.5886 13.7836 57.5662C16.3282 55.6221 18.9679 52.9629 20.887 50.3678C25.0128 44.7869 24.2586 41.5969 21.7921 39.6919C23.3312 39.3289 24.697 39.7728 25.8954 40.6584C28.4595 42.555 29.3058 45.7561 25.1129 51.4293Z" fill="#FF9A1B"/>
<path d="M10.7166 61.1949C12.1077 62.2227 14.993 60.9294 18.0097 58.6277C18.1745 57.4378 18.2221 56.0942 18.1523 54.6027C17.9986 51.2786 17.2724 47.4575 16.1775 44.1055C16.0602 44.2534 15.9457 44.4071 15.8284 44.5664C11.6385 50.2367 8.15241 59.2983 10.7166 61.1949Z" fill="#FF9A1B"/>
<path d="M12.0056 44.0336C14.4905 50.6328 15.3699 60.3031 12.3862 61.4268C9.40262 62.5505 3.68542 54.7016 1.20052 48.102C-1.28438 41.5025 0.403987 38.6519 3.38761 37.5282C6.3715 36.4048 9.52072 37.4343 12.0056 44.0336Z" fill="#FFDBAA"/>
<path d="M12.3869 61.4267C11.6354 61.7087 10.711 61.4239 9.70814 60.7311C10.7976 57.3625 9.83655 50.3428 7.89815 45.1949C6.12997 40.5022 4.02949 38.6279 1.88965 38.3401C2.33108 37.9994 2.83659 37.7339 3.38689 37.5273C6.37023 36.4044 9.52109 37.4353 12.0041 44.0329C14.4901 50.6335 15.3702 60.3038 12.3869 61.4267Z" fill="#FFC26D"/>
<path d="M17.9121 89.6166C19.5964 90.0132 21.7362 87.6836 23.5991 84.3764C25.1718 81.5888 26.5461 78.0999 27.2862 74.9602C28.9007 68.0971 26.8589 65.4854 23.7555 64.7562C20.7361 64.0468 17.8255 65.3762 16.183 71.7618C16.1355 71.9434 16.0907 72.1278 16.0462 72.3176C14.4344 79.1837 14.8087 88.8846 17.9121 89.6166Z" fill="#FFB54E"/>
<path d="M27.2863 74.9602C26.5459 78.0999 25.1717 81.5887 23.5993 84.3763C21.7361 87.6836 19.5965 90.0132 17.9122 89.6165C17.1189 89.4295 16.5043 88.6558 16.0547 87.4935C17.1442 86.5634 18.2754 85.016 19.3171 83.1639C20.8898 80.3763 22.2641 76.8874 23.0042 73.7477C24.1745 68.7757 23.4231 66.0327 21.7415 64.6247C22.3979 64.5408 23.0739 64.5968 23.7554 64.7561C26.859 65.4853 28.9008 68.097 27.2863 74.9602Z" fill="#FF9A1B"/>
<path d="M17.9121 89.6165C19.5964 90.0131 21.7363 87.6835 23.5992 84.3763C23.2835 83.217 22.7975 81.9658 22.1438 80.6222C20.6883 77.6277 18.5124 74.4071 16.1828 71.7617C16.1353 71.9433 16.0905 72.1277 16.046 72.3174C14.4344 79.1836 14.8088 88.8845 17.9121 89.6165Z" fill="#FF9A1B"/>
<path d="M12.3241 73.3387C17.2116 78.4217 21.8361 86.9601 19.5377 89.1698C17.2393 91.3794 8.88898 86.424 4.00143 81.3409C-0.886107 76.2579 -0.459876 72.9722 1.83824 70.7623C4.13636 68.5524 7.43653 68.2556 12.3241 73.3387Z" fill="#FFDBAA"/>
<path d="M19.5382 89.1696C18.8035 89.8763 17.4488 89.8511 15.7868 89.3206C16.4042 86.1502 12.3175 79.0299 8.02993 74.5719C5.68349 72.1304 3.703 70.9321 2.02441 70.5887C4.31222 68.5411 7.56623 68.3905 12.3232 73.3402C17.2113 78.421 21.8368 86.96 19.5382 89.1696Z" fill="#FFC26D"/>
<path d="M102.634 92.5036V117.812H36.3667V92.5036C36.3667 90.9597 37.6169 89.7095 39.1578 89.7095H99.8426C101.384 89.7095 102.634 90.9597 102.634 92.5036Z" fill="#EFE2DD"/>
<path d="M102.634 92.5033V117.813H96.2093V92.5033C96.2093 90.9612 94.958 89.71 93.416 89.71H99.8407C101.383 89.71 102.634 90.9612 102.634 92.5033Z" fill="#CDBFBB"/>
<path d="M114.003 125.85H24.9969C23.4543 125.85 22.2036 124.599 22.2036 123.056V115.976C22.2036 114.433 23.4543 113.183 24.9969 113.183H114.003C115.546 113.183 116.797 114.433 116.797 115.976V123.056C116.797 124.599 115.546 125.85 114.003 125.85Z" fill="#FFF5F5"/>
<path d="M116.796 115.975V123.056C116.796 124.598 115.545 125.85 114.003 125.85H107.835C109.377 125.85 110.629 124.598 110.629 123.056V115.975C110.629 114.433 109.377 113.182 107.835 113.182H114.003C115.545 113.182 116.796 114.433 116.796 115.975Z" fill="#EFE2DD"/>
<path d="M80.8376 103.279H58.1629C57.0045 103.279 56.0654 102.34 56.0654 101.181C56.0654 100.023 57.0045 99.084 58.1629 99.084H80.8376C81.996 99.084 82.9351 100.023 82.9351 101.181C82.9351 102.34 81.996 103.279 80.8376 103.279Z" fill="#FFC26D"/>
<path d="M79.9051 56.0177C79.9051 58.5792 78.9777 60.9283 77.4413 62.7413C75.5306 64.9927 72.6817 66.4229 69.5001 66.4229C66.3186 66.4229 63.4694 64.9927 61.5589 62.7413C60.0226 60.9283 59.0952 58.5792 59.0952 56.0177C59.0952 50.272 63.7544 45.6128 69.5001 45.6128C75.2458 45.6128 79.9051 50.272 79.9051 56.0177Z" fill="#FFDBAA"/>
<path d="M79.9051 56.0177C79.9051 58.5792 78.9777 60.9283 77.4413 62.7413L69.5001 58.5653L61.5589 62.7413C60.0226 60.9283 59.0952 58.5792 59.0952 56.0177C59.0952 50.272 63.7544 45.6128 69.5001 45.6128C75.2458 45.6128 79.9051 50.272 79.9051 56.0177Z" fill="#FFC26D"/>
<path d="M101.598 27.4607L88.0305 40.6812L91.2329 59.3531C91.7118 62.1497 88.7787 64.28 86.265 62.9617L69.5 54.1477L52.735 62.9614C50.2213 64.2797 47.2882 62.1494 47.7671 59.3528L49.5005 49.2435L50.9695 40.6809L37.4023 27.4604C35.3722 25.4805 36.4945 22.0272 39.3 21.6211L58.045 18.8975L66.4298 1.90908C67.6843 -0.63636 71.3157 -0.63636 72.5699 1.90908L80.9548 18.8975L87.2 19.8054L99.6997 21.6211C102.505 22.0275 103.628 25.4808 101.598 27.4607Z" fill="#FFCE8B"/>
<path d="M101.598 27.4607L88.0305 40.6812L91.233 59.3531C91.7119 62.1497 88.7787 64.28 86.2651 62.9617L69.5001 54.1477L52.7351 62.9614C50.2214 64.2798 47.2883 62.1494 47.7672 59.3529L49.5006 49.2436C75.5172 44.4948 84.3033 30.2114 87.2003 19.8057L99.7 21.6214C102.506 22.0275 103.628 25.4808 101.598 27.4607Z" fill="#FFB54E"/>
</svg>
