<svg width="13" height="12" viewBox="0 0 13 12" fill="none" xmlns="http://www.w3.org/2000/svg">
<path d="M12.9987 6.32843V3.16998C12.9983 3.12688 12.9792 3.08546 12.9452 3.05374C12.605 2.36038 10.6232 1.91996 8.37113 1.76317V0.871913L9.15872 0.523185L8.37113 0.174457V0.0872285C8.37148 0.0644529 8.3613 0.0424868 8.34283 0.0261385C8.32435 0.00979026 8.29908 0.000391607 8.27255 0C8.24606 0.000440179 8.22084 0.00986011 8.20241 0.0262031C8.18398 0.0425461 8.17384 0.0644846 8.17418 0.0872285V1.75015C7.64987 1.71795 7.12445 1.70089 6.5988 1.699V0.871913L7.3866 0.523185L6.5988 0.174457V0.0872285C6.59858 0.0390575 6.55417 0 6.50022 0C6.44627 0 6.40185 0.0390575 6.40185 0.0872285V1.699C5.87535 1.70086 5.34517 1.71816 4.82647 1.75015V0.871913L5.61405 0.523185L4.82647 0.174457V0.0872285C4.82676 0.0644673 4.81656 0.0425292 4.7981 0.0261916C4.77963 0.00985399 4.7544 0.000440148 4.72788 0C4.67372 0 4.6293 0.0390575 4.6293 0.0872285V1.76317C2.19635 1.93242 0.0790833 2.4331 0.00584999 3.22541C0.00476666 3.23192 0.00130001 3.2375 0.00130001 3.24456V6.32862H0V8.97988H4.8737L4.26422 10.3748H4.06098L4.56907 9.15415H3.24848L2.63922 10.3748H2.43598L3.04547 9.15415H1.62392L1.01443 10.3748H0.811417L1.42068 9.15415H0V11.1593H13V6.32843H12.9987ZM12.597 3.21648C12.5864 3.26261 12.5621 3.28083 12.5511 3.28809C12.4722 3.34184 12.3684 3.39317 12.2512 3.4432C11.9992 3.12609 11.2968 2.84711 10.307 2.64475L10.5974 2.38753C11.8094 2.62374 12.5173 2.94345 12.597 3.21648ZM3.94008 3.74878L3.74985 4.08077C3.29051 4.04667 2.83301 3.99616 2.37857 3.92937C4.02502 3.34035 8.61532 3.35895 10.5231 3.87283C10.1272 3.93495 9.69107 3.9887 9.22285 4.0326L9.06035 3.74878H3.94008ZM9.035 4.04915C8.2849 4.11406 7.46178 4.15442 6.59858 4.16502V3.92324H8.96307L9.035 4.04915ZM6.40185 3.92324V4.16651C6.31518 4.16725 6.2296 4.16874 6.14228 4.16874H6.14142C5.35448 4.16874 4.61413 4.14214 3.939 4.09509L4.03715 3.92342L6.40185 3.92324ZM9.55002 3.2719C9.56367 3.27414 9.57753 3.27637 9.5914 3.27823L10.1246 2.80619C11.0409 2.98939 11.7167 3.24122 12.0269 3.52894C11.8333 3.59571 11.6092 3.65913 11.352 3.71753C10.8962 3.53787 10.2804 3.38499 9.55002 3.2719ZM6.59858 2.04773C8.1471 2.05275 9.4458 2.17718 10.4351 2.3574L10.1461 2.61313C9.16955 2.4277 7.9391 2.315 6.59858 2.30942V2.04773ZM6.59858 3.05523V2.49038C7.8624 2.49578 9.02612 2.60123 9.96277 2.77513L9.42348 3.25256C9.4653 3.25758 9.50473 3.26446 9.5446 3.27097C8.66277 3.13483 7.61713 3.05579 6.49588 3.05523C6.53033 3.05523 6.56457 3.05486 6.59858 3.05523ZM6.47378 3.05523C4.34438 3.05634 2.49188 3.34146 1.50973 3.76273C1.27898 3.7073 1.0738 3.64741 0.905233 3.58288C1.18712 3.27172 1.89562 2.99943 2.87343 2.80452L3.40427 3.27432C3.46082 3.2667 3.51455 3.2561 3.57262 3.24903L3.03528 2.77308C3.97345 2.59937 5.13782 2.49485 6.40185 2.4902V3.05504L6.47378 3.05523ZM6.40185 2.04773V2.30942C5.06112 2.31425 3.83002 2.4264 2.8522 2.61127L2.56533 2.3574C3.55463 2.17718 4.85312 2.05275 6.40185 2.04773ZM2.40283 2.38753L2.691 2.64289C1.64233 2.85603 0.915633 3.15585 0.701567 3.49528C0.580883 3.43632 0.485983 3.37401 0.41925 3.3091C0.413833 3.30371 0.398883 3.2892 0.39845 3.24401C0.437017 2.96502 1.14985 2.63173 2.40283 2.38753ZM7.66762 8.03283V8.19501H7.2878V6.97456H5.71242V8.1952H5.30422V8.01405C5.30495 7.97004 5.28603 7.92745 5.25134 7.89505C5.21665 7.86264 5.16881 7.84286 5.11767 7.83977C1.86052 7.68764 0.3952 7.17952 0.3952 6.86743V6.44077C1.55697 7.08187 4.42693 7.26675 5.1168 7.30245L5.12633 7.09619C2.8535 6.97846 1.07033 6.63029 0.3952 6.20829V5.56905C1.55697 6.21015 4.42693 6.39502 5.1168 6.43073L5.12633 6.22447C2.8535 6.10674 1.07033 5.75857 0.3952 5.33656V4.69732C1.55697 5.33842 4.42693 5.52329 5.1168 5.559L5.12633 5.35274C2.8535 5.23501 1.07033 4.88684 0.3952 4.46483V3.7378C1.4066 4.30842 3.94875 4.51765 6.14142 4.51765H6.14207C8.60492 4.51747 11.4736 4.25578 12.6048 3.6742V4.39193C11.957 4.92088 10.267 5.28225 7.87432 5.37357L7.88125 5.57965C9.09632 5.53352 11.5572 5.35107 12.6048 4.64227V5.26347C11.957 5.79242 10.267 6.15379 7.87432 6.24511L7.88125 6.45137C9.09632 6.40525 11.5572 6.22279 12.6048 5.51399V6.13519C11.957 6.66414 10.267 7.02552 7.87432 7.11684L7.88125 7.3231C9.09632 7.27697 11.5572 7.09452 12.6048 6.38572V6.68832C12.6048 7.2913 10.6966 7.76166 7.85698 7.85856C7.75103 7.86209 7.66762 7.93928 7.66762 8.03283ZM12.9987 9.15415H11.5767L12.1862 10.3748H11.9832L11.3737 9.15415H9.95193L10.5612 10.3748H10.358L9.74848 9.15415H8.42833L8.93598 10.3748H8.73275L8.12327 8.97988H12.9983V9.15415H12.9987Z" fill="#5A5A5A"/>
<path d="M7.59312 5.74061C7.53354 5.5563 7.30777 5.40527 7.09089 5.40527H5.9094C5.69274 5.40527 5.46697 5.5563 5.40739 5.74061L5.23015 6.29058C5.22031 6.32152 5.21607 6.35357 5.21759 6.38562C5.25362 6.35166 5.29747 6.32449 5.34636 6.30582C5.39525 6.28716 5.44813 6.27741 5.50164 6.27719H7.47092C7.59789 6.27719 7.7099 6.33187 7.78227 6.415C7.78816 6.37329 7.78425 6.33098 7.77079 6.29058L7.59312 5.74061Z" fill="#5A5A5A"/>
<path d="M0.785833 4.97001L0.589316 4.89003C0.536233 4.86827 0.492033 4.89412 0.492683 4.94825L0.495066 5.17999C0.495716 5.23392 0.539916 5.29567 0.593216 5.31743L0.789733 5.39759C0.843033 5.41954 0.887016 5.39369 0.886366 5.33938L0.883983 5.10745C0.883983 5.0537 0.839133 4.99177 0.785833 4.97001Z" fill="#5A5A5A"/>
<path d="M4.12982 5.61024L3.9229 5.60075C3.86592 5.59815 3.82107 5.62623 3.8228 5.66287L3.83754 5.93033C3.83949 5.96715 3.88737 5.99951 3.94457 6.00193L4.1517 6.01179C4.20847 6.01439 4.25354 5.98631 4.2518 5.94948L4.23707 5.68222C4.23512 5.64539 4.1868 5.61303 4.12982 5.61024Z" fill="#5A5A5A"/>
<path d="M2.35866 5.39043L2.15542 5.35881C2.09931 5.34988 2.05467 5.37369 2.05619 5.41126L2.06659 5.68429C2.06811 5.72186 2.11491 5.75962 2.17059 5.76854L2.37426 5.80016C2.43037 5.80909 2.47479 5.78528 2.47349 5.74771L2.46309 5.47468C2.46157 5.43711 2.41477 5.39936 2.35866 5.39043Z" fill="#5A5A5A"/>
<path d="M12.1188 5.42538L12.3153 5.3454C12.3684 5.32364 12.4126 5.26189 12.4132 5.20814L12.4156 4.97603C12.4165 4.92228 12.3723 4.89605 12.3192 4.91782L12.1225 4.99742C12.0689 5.01918 12.0241 5.0813 12.0241 5.13505L12.0215 5.36735C12.0213 5.4211 12.0653 5.44751 12.1188 5.42538Z" fill="#5A5A5A"/>
<path d="M8.75618 6.03995L8.9631 6.03009C9.0203 6.02748 9.06862 5.99512 9.07035 5.95848L9.08508 5.69103C9.08703 5.65439 9.04197 5.62631 8.98498 5.6291L8.77785 5.63877C8.72087 5.64137 8.67298 5.67336 8.67103 5.71019L8.6563 5.97764C8.65457 6.01447 8.69942 6.04236 8.75618 6.03995Z" fill="#5A5A5A"/>
<path d="M10.5336 5.82842L10.7372 5.79681C10.7931 5.78769 10.8399 5.74994 10.8412 5.71255L10.8516 5.43934C10.8531 5.40195 10.8085 5.37833 10.7526 5.38707L10.5492 5.41888C10.493 5.42762 10.446 5.46537 10.4447 5.50313L10.4341 5.77616C10.433 5.81373 10.4777 5.83717 10.5336 5.82842Z" fill="#5A5A5A"/>
</svg>
