<svg width="33" height="32" viewBox="0 0 33 32" fill="none" xmlns="http://www.w3.org/2000/svg">
<path d="M3.97732 21.8039L7.45572 18.8136C9.30864 17.2207 12.0414 17.2004 13.9179 18.7655L15.9549 20.4646" stroke="black" stroke-width="1.2" stroke-linecap="round" stroke-linejoin="round"/>
<path d="M12.4315 23.6121L20.8054 16.3041C22.5929 14.7441 25.2306 14.6551 27.1192 16.091L30.4434 18.6184" stroke="black" stroke-width="1.2" stroke-linecap="round" stroke-linejoin="round"/>
<path d="M26.5687 1.30005H6.56868C3.80726 1.30005 1.56868 3.53863 1.56868 6.30005V26.3C1.56868 29.0615 3.80726 31.3 6.56868 31.3H26.5687C29.3301 31.3 31.5687 29.0615 31.5687 26.3V6.30005C31.5687 3.53863 29.3301 1.30005 26.5687 1.30005Z" stroke="black" stroke-width="1.2"/>
<path d="M12.5388 12.0463C14.3935 12.0463 15.897 10.5427 15.897 8.68804C15.897 6.83336 14.3935 5.32983 12.5388 5.32983C10.6841 5.32983 9.18062 6.83336 9.18062 8.68804C9.18062 10.5427 10.6841 12.0463 12.5388 12.0463Z" stroke="black" stroke-width="1.2"/>
</svg>
